<svg id="Layer_1" enable-background="new 0 0 128 128" height="512" viewBox="0 0 128 128" width="512" xmlns="http://www.w3.org/2000/svg"><path d="m95.383 46.472c-8.229-7.777-18.998-11.882-30.311-11.566-23.362.659-41.834 20.202-41.177 43.565.648 22.959 19.53 41.194 42.355 41.194.401 0 .807-.006 1.21-.017 3.914-.11 7.777-.753 11.481-1.911.526-.165 8.822-3.862 10.526-4.979.462-.303 3.837-2.83 4.257-3.187 9.841-8.377 15.276-20.583 14.913-33.488-.318-11.317-5.025-21.833-13.254-29.611z" fill="#e6e7e8"/><path d="m27.718 35.198c1.135-.024 2.266-.257 3.325-.688.001 0 .002-.001.003-.001 4.759-1.955 7.049-7.416 5.105-12.173-1.212-2.963-3.815-5.073-6.959-5.644-1.138-.216-2.298-.212-3.46.014-.62.128-1.19.299-1.74.521-.008.003-.016.006-.024.01-1.251-1.084-2.763-1.807-4.41-2.105-1.761-.326-3.564-.139-5.21.538-4.766 1.947-7.062 7.404-5.118 12.165.391.953.936 1.828 1.625 2.612-1.887 2.599-2.309 5.962-1.075 8.987 1.449 3.545 4.921 5.802 8.639 5.802.559 0 1.123-.051 1.687-.156.623-.113 1.241-.294 1.841-.539 3.794-1.561 6.078-5.359 5.771-9.343z" fill="#e6e7e8"/><path d="m27.846 37.424c-.377.403-.356 1.036.047 1.413l5.274 4.937c.193.181.438.27.684.27.267 0 .533-.106.73-.317.377-.403.356-1.036-.047-1.413l-5.274-4.937c-.403-.378-1.036-.358-1.414.047z" fill="#e6e7e8"/><path d="m30.476 35.098c-.373.407-.346 1.04.063 1.413l5.245 4.802c.191.175.434.262.675.262.271 0 .54-.109.737-.325.373-.407.346-1.04-.063-1.413l-5.245-4.802c-.406-.372-1.039-.344-1.412.063z" fill="#e6e7e8"/><path d="m122.762 27.835c.943-2.308.931-4.845-.034-7.143-.965-2.299-2.767-4.084-5.075-5.027-3.274-1.34-6.976-.715-9.622 1.568-.006-.002-.012-.005-.018-.007-4.766-1.945-10.224.346-12.171 5.108-.943 2.308-.931 4.845.034 7.144s2.767 4.084 5.075 5.027c1.058.432 2.188.666 3.325.691-.31 3.991 1.976 7.79 5.772 9.341 1.152.471 2.344.694 3.519.693 3.68 0 7.175-2.191 8.651-5.802 1.232-3.016.813-6.378-1.073-8.984.684-.777 1.226-1.651 1.617-2.609z" fill="#e6e7e8"/><path d="m97.417 43.727c.197.21.464.316.73.316.245 0 .49-.089.684-.27l5.273-4.937c.403-.377.424-1.01.047-1.414-.378-.402-1.01-.423-1.414-.046l-5.273 4.937c-.404.378-.424 1.01-.047 1.414z" fill="#e6e7e8"/><path d="m95.54 41.575c.241 0 .483-.087.676-.263l5.244-4.802c.407-.373.435-1.005.062-1.413s-1.005-.435-1.413-.062l-5.244 4.802c-.407.373-.435 1.005-.062 1.413.197.215.466.325.737.325z" fill="#e6e7e8"/><path d="m45.546 25.794c.32.668.707 1.271 1.16 1.811.508.594 1.064 1.072 1.67 1.436s1.279.631 2.021.803 1.567.256 2.473.256c1.195 0 2.242-.191 3.141-.574s1.637-.881 2.215-1.494 1.002-1.238 1.271-1.875.404-1.229.404-1.775c0-.43-.148-.789-.445-1.078s-.652-.434-1.066-.434c-.484 0-.836.143-1.055.428s-.402.654-.551 1.107c-.352.961-.873 1.689-1.564 2.186s-1.537.744-2.537.744c-.922 0-1.727-.219-2.414-.656s-1.219-1.1-1.594-1.986-.563-1.998-.563-3.334c0-2 .424-3.543 1.271-4.629s1.987-1.63 3.417-1.63c.898 0 1.654.211 2.268.633.613.422 1.146 1.059 1.6 1.91.273.516.521.879.744 1.09s.557.316 1.002.316c.398 0 .738-.152 1.02-.457s.422-.656.422-1.055c0-.727-.289-1.498-.867-2.314s-1.41-1.502-2.496-2.057-2.324-.832-3.715-.832c-1.141 0-2.215.203-3.223.609s-1.887.998-2.637 1.775-1.326 1.713-1.729 2.807-.604 2.332-.604 3.715c0 .852.08 1.656.24 2.414s.4 1.472.721 2.14z" fill="#e6e7e8"/><path d="m64.389 27.616c.711.789 1.598 1.4 2.66 1.834s2.266.65 3.609.65c1.352 0 2.551-.211 3.598-.633s1.93-1.031 2.648-1.828 1.258-1.738 1.617-2.824.539-2.293.539-3.621c0-1.797-.328-3.361-.984-4.693s-1.623-2.359-2.9-3.082-2.807-1.084-4.588-1.084c-1.313 0-2.484.205-3.516.615s-1.906 1.002-2.625 1.775-1.268 1.711-1.646 2.812-.568 2.313-.568 3.633c0 1.289.182 2.488.545 3.598s.901 2.059 1.611 2.848zm1.741-9.064c.246-.777.582-1.416 1.008-1.916s.934-.881 1.523-1.143 1.232-.393 1.928-.393c.977 0 1.842.236 2.596.709s1.334 1.17 1.74 2.092.609 2.012.609 3.27c0 1.359-.221 2.504-.662 3.434s-1.035 1.617-1.781 2.063-1.564.668-2.455.668c-.695 0-1.334-.129-1.916-.387s-1.098-.646-1.547-1.166-.797-1.174-1.043-1.963-.369-1.672-.369-2.648c0-.97.123-1.843.369-2.62z" fill="#e6e7e8"/><path d="m85.143 24.267c-.249.267-.56.532-.934.796-.21.141-.559.437-1.046.885s-1.034.988-1.641 1.617c-.146.155-.28.368-.403.639s-.185.489-.185.653c0 .255.096.478.287.667s.458.284.8.284h5.031c.301 0 .525-.078.674-.232.147-.155.222-.344.222-.567 0-.25-.094-.449-.28-.595s-.458-.219-.813-.219h-3.568c.114-.173.226-.321.335-.444.255-.31.726-.745 1.412-1.306s1.174-.972 1.466-1.234.577-.625.858-1.087c.279-.462.42-.977.42-1.542 0-.36-.067-.708-.201-1.042-.135-.335-.323-.63-.564-.885s-.521-.456-.841-.602c-.492-.219-1.087-.328-1.784-.328-.579 0-1.084.085-1.514.256-.432.171-.787.396-1.066.673-.281.278-.491.588-.633.93s-.212.67-.212.984c0 .26.075.465.226.615s.34.226.567.226c.26 0 .457-.082.591-.246.135-.164.256-.399.363-.704.106-.305.183-.492.229-.561.342-.524.812-.786 1.408-.786.282 0 .543.064.783.191.238.127.428.307.566.537.14.23.209.491.209.783 0 .269-.064.543-.195.824-.129.28-.319.553-.567.82z" fill="#e6e7e8"/><ellipse cx="62.267" cy="73.277" fill="#ffd7e5" rx="41.388" ry="41.388" transform="matrix(.707 -.707 .707 .707 -33.577 65.492)"/><path d="m70.514 66.392c1.293-2.587 1.201-5.636-.785-8.148-3.51-4.441-10.639-4.832-15.542-2.591-2.154.985-4.025 2.616-5.307 4.957-1.337 2.441-1.834 5.671-1.813 8.422.021 2.688.404 5.434.754 8.094.803 6.099 2.095 12.233 4.345 17.982 1.464 3.74 4.827 6.515 8.812 7.019.031.004.063.008.095.012 2.567.305 5.162-.367 7.083-1.835 2.57-1.964 3.35-5.099 1.932-7.769l-2.804-5.28c-2.006-3.777-2.284-8.047-.781-11.987z" fill="#fa759e"/><path d="m47.986 58.996c1.023-.297 1.441-1.546.933-2.79s-1.749-2.01-2.772-1.713-1.441 1.546-.933 2.79c.507 1.244 1.748 2.01 2.772 1.713z" fill="#fa759e"/><path d="m51.851 54.217c1.136-.237 1.703-1.685 1.268-3.233s-1.709-2.612-2.845-2.374-1.703 1.685-1.268 3.233c.436 1.548 1.709 2.611 2.845 2.374z" fill="#fa759e"/><path d="m57.865 51.84c1.32-.077 2.299-1.701 2.186-3.627-.112-1.926-1.273-3.425-2.594-3.348-1.32.077-2.299 1.701-2.186 3.627.113 1.925 1.274 3.425 2.594 3.348z" fill="#fa759e"/><path d="m64.388 52.056c1.551.225 3.158-1.315 3.591-3.438.433-2.124-.474-4.027-2.024-4.252s-3.158 1.315-3.591 3.438.473 4.027 2.024 4.252z" fill="#fa759e"/><path d="m78.478 47.971c-1.679-1.223-4.76-.376-6.881 1.892s-2.479 5.099-.799 6.322 4.76.376 6.881-1.892c2.12-2.268 2.478-5.099.799-6.322z" fill="#fa759e"/><path d="m26.666 29.583c-1.35.55-2.76.72-4.11.56.84 3.88-1.19 7.91-4.99 9.47-.14.06-.27.11-.41.15-.41.15-.82.25-1.23.33-3.8.71-7.7-1.32-9.22-5.04-1.24-3.04-.56-6.37 1.48-8.67-.85-.8-1.56-1.78-2.03-2.93-1.74-4.26.31-9.12 4.57-10.86 1.53-.63 3.14-.76 4.65-.48h.01c1.65.3 3.19 1.1 4.39 2.31.2-.09.39-.19.59-.27.52-.21 1.04-.36 1.57-.47 1.03-.2 2.07-.2 3.07-.01.17.03.34.07.5.11.14.03.27.07.41.11.15.04.3.09.45.15.38.14.76.3 1.11.5.11.06.22.12.33.18.18.11.37.23.54.36.12.08.24.18.36.27.47.37.91.8 1.29 1.28.1.11.19.24.28.36.25.35.48.73.68 1.13.1.19.19.39.27.59 1.74 4.26-.3 9.12-4.56 10.87z" fill="#fff"/><path d="m26.666 29.583c-1.35.55-2.76.72-4.11.56.84 3.88-1.19 7.91-4.99 9.47-.14.06-.27.11-.41.15-.41.15-.82.25-1.23.33-2.7-.49-5.1-2.3-6.22-5.04-1.048-2.568-.725-5.344.631-7.53.415-.67.393-1.549-.088-2.174-.939-1.221-1.575-2.738-1.69-4.529-.232-3.6 1.979-7.015 5.35-8.299.481-.183.971-.319 1.468-.408h.01c1.65.3 3.19 1.1 4.39 2.31.2-.09.39-.19.59-.27.52-.21 1.04-.36 1.57-.47.29.23.57.47.84.74.2-.09.39-.19.59-.27.54-.22 1.09-.38 1.64-.48.17.03.34.07.5.11.14.03.27.07.41.11.15.04.3.09.45.15.38.14.76.3 1.11.5.11.06.22.12.33.18.18.11.37.23.54.36.12.08.24.18.36.27.47.37.91.8 1.29 1.28.1.11.19.24.28.36.25.35.48.73.68 1.13.1.19.19.39.27.59 1.739 4.26-.301 9.12-4.561 10.87z" fill="#fa759e"/><path d="m115.816 26.381c.85-.795 1.552-1.776 2.021-2.924 1.741-4.26-.301-9.125-4.561-10.867-3.207-1.311-6.756-.476-9.058 1.834-.191-.095-.381-.191-.582-.273-4.26-1.741-9.125.301-10.867 4.561-1.741 4.26.301 9.125 4.561 10.867 1.349.551 2.759.721 4.111.563-.84 3.878 1.187 7.916 4.987 9.469 4.26 1.741 9.125-.301 10.867-4.561 1.239-3.034.553-6.369-1.479-8.669z" fill="#fa759e"/><g fill="#3a2c60"><path d="m84.373 107.085c-1.624 1.064-3.338 2.018-5.095 2.834-.5.233-.718.827-.485 1.328.17.365.531.579.908.579.141 0 .284-.03.421-.093 1.844-.857 3.643-1.858 5.347-2.975.462-.303.591-.922.288-1.385-.301-.46-.921-.592-1.384-.288z"/><path d="m91.384 42.472c-8.229-7.777-19.01-11.884-30.311-11.566-23.363.659-41.835 20.202-41.178 43.565.648 22.959 19.53 41.194 42.355 41.194.401 0 .807-.006 1.21-.017 3.914-.11 7.777-.753 11.481-1.911.526-.165.82-.726.655-1.253s-.724-.82-1.253-.656c-3.528 1.104-7.209 1.716-10.94 1.821-22.243.632-40.882-16.973-41.509-39.234-.626-22.261 16.975-40.882 39.236-41.51 10.803-.295 21.041 3.611 28.88 11.021 7.841 7.411 12.325 17.431 12.629 28.214.347 12.295-4.833 23.926-14.21 31.908-.42.358-.471.989-.113 1.41.359.42.989.471 1.41.113 9.841-8.377 15.276-20.583 14.913-33.487-.32-11.318-5.027-21.834-13.255-29.612z"/><path d="m23.718 31.198c1.135-.024 2.266-.257 3.325-.688.001 0 .002-.001.003-.001 4.759-1.955 7.049-7.416 5.105-12.173-1.212-2.963-3.815-5.073-6.959-5.644-1.137-.216-2.296-.212-3.46.014-.621.128-1.191.299-1.738.521-.009.003-.018.007-.026.011-1.252-1.084-2.764-1.808-4.409-2.105-1.763-.325-3.564-.14-5.211.538-4.765 1.943-7.061 7.399-5.118 12.161.391.953.936 1.828 1.625 2.612-1.887 2.599-2.309 5.962-1.075 8.987 1.449 3.545 4.921 5.802 8.639 5.802.559 0 1.123-.051 1.687-.156.62-.113 1.238-.294 1.841-.539 3.794-1.558 6.078-5.355 5.771-9.34zm-6.529 7.489c-.472.192-.957.334-1.446.423-3.388.63-6.802-1.231-8.111-4.435-1.062-2.604-.562-5.527 1.303-7.629.358-.404.331-1.021-.063-1.392-.793-.747-1.395-1.615-1.79-2.58-1.526-3.74.277-8.027 4.025-9.557.877-.361 1.81-.544 2.752-.544.445 0 .895.041 1.34.124 1.478.267 2.814.969 3.867 2.03.293.296.741.377 1.119.208l.244-.114c.103-.049.203-.098.312-.141.438-.177.896-.314 1.386-.416.899-.175 1.806-.177 2.701-.008 2.476.45 4.521 2.107 5.473 4.434 1.527 3.739-.273 8.03-4.013 9.567-1.147.467-2.398.637-3.613.492-.328-.037-.641.082-.858.32-.217.239-.306.569-.237.884.751 3.477-1.096 6.981-4.391 8.334z"/><path d="m23.846 33.423c-.377.403-.356 1.036.047 1.414l5.274 4.937c.193.181.438.27.684.27.267 0 .533-.106.73-.316.377-.403.356-1.036-.047-1.414l-5.274-4.937c-.404-.378-1.036-.357-1.414.046z"/><path d="m26.476 31.098c-.373.407-.346 1.04.063 1.413l5.245 4.802c.191.175.434.262.675.262.271 0 .54-.109.737-.325.373-.407.346-1.04-.063-1.413l-5.245-4.802c-.405-.371-1.038-.345-1.412.063z"/><path d="m118.762 23.835c.943-2.308.931-4.845-.034-7.144s-2.767-4.084-5.075-5.027c-3.273-1.339-6.977-.716-9.622 1.568-.006-.002-.012-.005-.019-.007-2.308-.943-4.845-.931-7.143.034-2.299.965-4.084 2.767-5.027 5.075s-.931 4.845.034 7.144 2.767 4.084 5.074 5.027c1.059.432 2.189.666 3.326.691-.31 3.991 1.976 7.79 5.772 9.341 1.14.466 2.335.699 3.53.699 1.225 0 2.449-.245 3.612-.733 2.299-.965 4.084-2.767 5.027-5.075 1.232-3.016.813-6.378-1.073-8.984.685-.777 1.227-1.651 1.618-2.609zm-2.394 10.836c-.741 1.813-2.144 3.229-3.95 3.988-1.805.758-3.798.769-5.612.026-3.296-1.347-5.142-4.851-4.388-8.332.068-.315-.021-.645-.237-.883-.19-.21-.46-.328-.74-.328-.038 0-.077.002-.116.007-1.222.143-2.473-.029-3.616-.496-1.813-.741-3.229-2.144-3.987-3.95s-.768-3.799-.026-5.612c.741-1.813 2.144-3.229 3.95-3.988 1.807-.758 3.8-.768 5.612-.026.178.072.345.157.514.242.386.192.852.117 1.155-.188 2.097-2.105 5.225-2.738 7.972-1.614 1.813.741 3.229 2.144 3.987 3.95s.768 3.799.026 5.613c-.397.974-.996 1.84-1.778 2.572-.395.37-.424.986-.066 1.392 1.862 2.109 2.36 5.032 1.3 7.627z"/><path d="m93.417 39.727c.197.21.464.316.73.316.245 0 .49-.089.684-.27l5.273-4.937c.403-.377.424-1.01.047-1.414-.378-.403-1.01-.423-1.414-.046l-5.273 4.937c-.404.378-.424 1.011-.047 1.414z"/><path d="m91.54 37.575c.241 0 .483-.087.676-.263l5.244-4.802c.407-.373.435-1.005.062-1.413-.374-.407-1.005-.435-1.413-.062l-5.244 4.802c-.407.373-.435 1.005-.062 1.413.197.215.466.325.737.325z"/><path d="m41.546 21.794c.32.668.707 1.271 1.16 1.811.508.594 1.064 1.072 1.67 1.436s1.279.631 2.021.803 1.567.256 2.473.256c1.195 0 2.242-.191 3.141-.574s1.637-.881 2.215-1.494 1.002-1.238 1.271-1.875.404-1.229.404-1.775c0-.43-.148-.789-.445-1.078s-.652-.434-1.066-.434c-.484 0-.836.143-1.055.428s-.402.654-.551 1.107c-.352.961-.873 1.689-1.564 2.186s-1.537.744-2.537.744c-.922 0-1.727-.219-2.414-.656s-1.219-1.1-1.594-1.986-.563-1.998-.563-3.334c0-2 .424-3.543 1.271-4.629s1.987-1.63 3.417-1.63c.898 0 1.654.211 2.268.633s1.146 1.059 1.6 1.91c.273.516.521.879.744 1.09s.557.316 1.002.316c.398 0 .738-.152 1.02-.457s.422-.656.422-1.055c0-.727-.289-1.498-.867-2.314s-1.41-1.502-2.496-2.057-2.324-.832-3.715-.832c-1.141 0-2.215.203-3.223.609s-1.887.998-2.637 1.775-1.326 1.713-1.729 2.807-.604 2.332-.604 3.715c0 .852.08 1.656.24 2.414s.4 1.472.721 2.14z"/><path d="m60.389 23.616c.711.789 1.598 1.4 2.66 1.834 1.063.434 2.266.65 3.609.65 1.352 0 2.551-.211 3.598-.633s1.93-1.031 2.648-1.828 1.258-1.738 1.617-2.824.539-2.293.539-3.621c0-1.797-.328-3.361-.984-4.693s-1.623-2.359-2.9-3.082-2.807-1.084-4.588-1.084c-1.313 0-2.484.205-3.516.615-1.031.41-1.906 1.002-2.625 1.775s-1.268 1.711-1.646 2.813-.568 2.313-.568 3.633c0 1.289.182 2.488.545 3.598s.9 2.058 1.611 2.847zm1.741-9.064c.246-.777.582-1.416 1.008-1.916s.934-.881 1.523-1.143 1.232-.393 1.928-.393c.977 0 1.842.236 2.596.709s1.334 1.17 1.74 2.092.609 2.012.609 3.27c0 1.359-.221 2.504-.662 3.434s-1.035 1.617-1.781 2.063-1.564.668-2.455.668c-.695 0-1.334-.129-1.916-.387s-1.098-.646-1.547-1.166-.797-1.174-1.043-1.963-.369-1.672-.369-2.648c-.001-.97.123-1.843.369-2.62z"/><path d="m81.143 20.267c-.249.267-.56.532-.934.796-.21.141-.559.437-1.046.885s-1.034.988-1.641 1.617c-.146.155-.28.368-.403.639s-.185.489-.185.653c0 .255.096.478.287.667s.458.284.8.284h5.031c.301 0 .525-.078.674-.232.147-.155.222-.344.222-.567 0-.25-.094-.449-.28-.595s-.458-.219-.813-.219h-3.568c.114-.173.226-.321.335-.444.255-.31.726-.745 1.412-1.306s1.174-.972 1.466-1.234.577-.625.858-1.087c.279-.462.42-.977.42-1.542 0-.36-.067-.708-.201-1.042-.135-.335-.323-.63-.564-.885s-.521-.456-.841-.602c-.492-.219-1.087-.328-1.784-.328-.579 0-1.084.085-1.514.256-.432.171-.787.396-1.066.673-.281.278-.491.588-.633.93s-.212.67-.212.984c0 .26.075.465.226.615s.34.226.567.226c.26 0 .457-.082.591-.246.135-.164.256-.399.363-.704.106-.305.183-.492.229-.561.342-.524.812-.786 1.408-.786.282 0 .543.064.783.191.238.127.428.307.566.537.14.23.209.491.209.783 0 .269-.064.543-.195.824-.129.28-.319.553-.567.82z"/></g></svg>